# xmcd
#
# Track frame offsets: 
#        150
#        24759
#        79333
#        107053
#        145940
#        165884
#        212836
#
# Disc length: 3318 seconds
#
# Revision: 0
# Processed by: cddbd v1.5.1PL0 Copyright (c) Steve Scherf et al.
# Submitted via: ExactAudioCopy v0.95a5
#
DISCID=500cf407
DTITLE=Eric Clapton - 1974-07-30 Long Beach Arena, Long Beach, CA
DYEAR=1974
DGENRE=Blues
TTITLE0=Can't Find My Way Home
TTITLE1=Ramblin On My Mind
TTITLE2=Let It Rain
TTITLE3=Presence Of The Lord
TTITLE4=Crossroads
TTITLE5=Steady Rollin' Man
TTITLE6=??
EXTD=
EXTT0=
EXTT1=
EXTT2=
EXTT3=
EXTT4=
EXTT5=
EXTT6=
PLAYORDER=
